<?xml version="1.0" standalone="no"?>
<!DOCTYPE svg PUBLIC "-//W3C//DTD SVG 20010904//EN"
 "http://www.w3.org/TR/2001/REC-SVG-20010904/DTD/svg10.dtd">
<svg version="1.0" xmlns="http://www.w3.org/2000/svg"
 width="468.000000pt" height="533.000000pt" viewBox="0 0 468.000000 533.000000"
 preserveAspectRatio="xMidYMid meet">

<g transform="translate(0.000000,533.000000) scale(0.100000,-0.100000)"
fill="#000000" stroke="none">
<path d="M2082 5123 c-121 -180 -438 -647 -781 -1150 -72 -106 -131 -197 -131
-203 0 -13 73 -124 103 -157 l20 -23 933 0 933 0 61 90 61 90 -61 90 -61 90
-804 0 c-562 0 -805 3 -805 11 0 5 33 58 73 117 41 59 182 267 314 462 132
195 277 409 322 474 44 66 81 125 81 131 0 14 -108 175 -118 175 -4 0 -67 -89
-140 -197z"/>
<path d="M2317 4984 l-58 -85 0 -432 -1 -432 421 -3 420 -2 -206 297 c-393
569 -514 743 -516 743 -1 -1 -28 -39 -60 -86z"/>
<path d="M538 2858 l-525 -773 1045 -3 c575 -1 1047 0 1050 2 2 3 -20 40 -50
83 l-55 78 -807 3 c-554 1 -806 5 -806 13 0 13 73 120 92 137 11 9 154 12 562
14 l548 3 -44 60 c-24 33 -75 105 -113 160 -38 55 -145 207 -237 338 l-169
239 80 118 80 118 -60 88 c-34 49 -62 90 -64 92 -1 1 -238 -345 -527 -770z"/>
<path d="M1356 3498 c22 -37 391 -576 424 -618 15 -19 82 -116 150 -215 67
-99 126 -184 130 -189 5 -4 36 33 69 83 l61 90 0 431 0 430 -421 0 c-333 0
-419 -3 -413 -12z"/>
<path d="M2690 3268 c-90 -134 -260 -384 -377 -556 -117 -172 -213 -315 -213
-318 0 -8 121 -186 124 -182 2 1 55 80 118 173 63 94 256 379 429 635 174 256
319 471 323 478 6 9 -20 12 -116 12 l-124 0 -164 -242z"/>
<path d="M1373 1904 c-93 -34 -153 -140 -153 -275 0 -121 23 -162 179 -324
145 -149 161 -175 161 -266 0 -52 -22 -89 -53 -89 -50 1 -67 38 -67 151 l0 79
-110 0 -110 0 0 -95 c0 -180 38 -266 138 -313 49 -23 70 -27 152 -27 136 1
193 34 242 140 21 45 23 65 23 190 0 136 -1 141 -30 195 -19 35 -72 96 -148
171 -136 133 -157 161 -157 209 0 43 15 60 51 60 37 0 59 -33 59 -88 l0 -43
113 3 112 3 -3 55 c-7 138 -68 236 -165 265 -63 19 -179 18 -234 -1z"/>
<path d="M230 1330 l0 -580 100 0 100 0 1 413 c0 242 4 404 9 392 5 -11 36
-186 70 -390 33 -203 63 -380 66 -393 4 -22 7 -23 107 -20 l102 3 27 170 c14
94 44 276 65 405 l38 235 5 -405 5 -405 103 -3 102 -3 0 581 0 580 -174 0
c-158 0 -175 -2 -180 -17 -2 -10 -24 -162 -47 -338 -24 -176 -44 -322 -46
-324 -8 -11 -14 21 -47 264 -20 143 -42 295 -47 338 l-11 77 -174 0 -174 0 0
-580z"/>
<path d="M1830 1800 l0 -110 65 0 65 0 2 -467 3 -468 113 -3 112 -3 0 471 0
470 70 0 70 0 0 110 0 110 -250 0 -250 0 0 -110z"/>
<path d="M3730 1330 l0 -580 115 0 115 0 0 375 c0 422 3 445 59 445 61 0 61
-3 61 -432 l0 -388 115 0 115 0 0 419 c0 433 -2 456 -43 515 -40 57 -153 84
-216 51 -16 -8 -40 -28 -54 -45 -14 -16 -28 -30 -31 -30 -3 0 -6 56 -6 125 l0
125 -115 0 -115 0 0 -580z"/>
<path d="M2561 1732 c-70 -26 -100 -49 -136 -107 l-30 -48 0 -321 0 -321 27
-57 c47 -101 146 -147 290 -135 170 14 243 102 250 302 l3 80 -111 3 -111 3
-5 -84 c-7 -106 -18 -129 -61 -125 -49 5 -57 33 -55 178 l3 125 167 3 166 2 8
77 c8 87 -1 229 -18 285 -16 53 -69 112 -120 133 -66 27 -201 30 -267 7z m155
-173 c16 -18 19 -37 19 -118 l0 -96 -58 -3 -59 -3 4 106 c3 92 6 109 22 121
28 20 50 18 72 -7z"/>
<path d="M3220 1731 c-72 -26 -123 -80 -147 -158 -16 -50 -18 -96 -18 -333 0
-318 6 -352 79 -425 52 -52 112 -70 226 -69 71 0 93 4 135 26 107 56 136 113
143 281 l4 117 -121 0 -121 0 0 -105 c0 -92 -3 -108 -20 -125 -26 -26 -52 -25
-76 1 -18 19 -19 42 -22 289 -4 307 2 340 57 340 47 0 61 -30 61 -132 l0 -88
120 0 120 0 0 80 c0 162 -36 237 -136 286 -77 38 -202 44 -284 15z"/>
<path d="M1610 580 c0 -28 2 -30 40 -30 38 0 40 2 40 30 0 28 -2 30 -40 30
-38 0 -40 -2 -40 -30z"/>
<path d="M2620 580 c0 -28 2 -30 40 -30 38 0 40 2 40 30 0 28 -2 30 -40 30
-38 0 -40 -2 -40 -30z"/>
<path d="M200 575 c0 -3 0 -88 0 -190 0 -102 0 -192 0 -200 0 -10 11 -15 35
-15 l35 0 0 90 0 90 40 0 40 0 0 40 0 40 -40 0 c-39 0 -40 1 -40 35 0 35 0 35
45 35 l45 0 0 40 0 40 -80 0 c-44 0 -80 -2 -80 -5z"/>
<path d="M920 375 l0 -205 85 0 85 0 0 35 c0 35 0 35 -45 35 l-45 0 0 49 0 50
38 3 c35 3 37 5 40 41 l3 37 -40 0 -41 0 0 40 0 40 40 0 40 0 0 40 0 40 -80 0
-80 0 0 -205z"/>
<path d="M3365 555 c-20 -19 -25 -34 -25 -75 0 -48 3 -54 60 -115 46 -50 60
-72 60 -95 0 -19 -6 -33 -16 -37 -20 -8 -34 13 -34 53 0 26 -4 30 -22 28 -13
-1 -29 -3 -35 -3 -8 -1 -13 -17 -13 -45 0 -59 30 -95 85 -102 55 -7 87 13 103
61 24 71 9 117 -60 190 -38 41 -58 70 -54 80 8 23 35 18 41 -8 5 -17 13 -22
40 -23 33 -1 35 1 35 33 0 51 -37 83 -95 83 -35 0 -52 -6 -70 -25z"/>
<path d="M3710 566 c0 -18 -28 -299 -36 -353 l-5 -43 40 0 c39 0 41 2 41 30 0
27 3 30 30 30 27 0 30 -3 30 -30 0 -28 2 -30 39 -30 l39 0 -4 38 c-11 95 -34
337 -34 353 0 17 -8 19 -70 19 -53 0 -70 -3 -70 -14z m84 -183 c7 -90 7 -93
-13 -93 -24 0 -25 15 -14 145 8 95 17 76 27 -52z"/>
<path d="M4030 376 l0 -206 40 0 40 0 0 96 c0 86 2 95 18 92 14 -3 17 -17 20
-96 l3 -92 39 0 40 0 0 88 c0 61 -4 94 -15 109 -13 18 -13 22 0 33 21 17 20
128 -1 155 -12 17 -29 21 -99 24 l-85 3 0 -206z m120 119 c18 -21 4 -65 -20
-65 -16 0 -20 7 -20 33 0 48 16 61 40 32z"/>
<path d="M4380 573 c0 -5 -1 -97 -3 -206 l-2 -197 83 0 82 0 0 29 c0 28 -3 30
-42 33 l-43 3 -3 173 -2 172 -35 0 c-19 0 -35 -3 -35 -7z"/>
<path d="M434 508 c-39 -18 -49 -54 -49 -172 1 -127 9 -149 61 -166 48 -16 99
-5 124 27 18 23 20 40 20 145 0 119 0 120 -29 149 -32 31 -84 38 -127 17z m74
-162 c3 -111 -5 -143 -30 -118 -8 8 -13 45 -14 97 -2 107 4 137 25 133 13 -3
16 -21 19 -112z"/>
<path d="M630 345 l0 -175 40 0 39 0 3 137 c3 137 3 137 28 143 19 4 26 13 28
38 4 36 -3 39 -36 16 -20 -14 -22 -14 -22 0 0 12 -10 16 -40 16 l-40 0 0 -175z"/>
<path d="M1120 345 l0 -175 40 0 39 0 3 143 c3 118 5 142 18 142 13 0 15 -24
18 -142 l3 -143 39 0 40 0 0 153 c0 122 -3 157 -16 175 -18 26 -65 30 -85 6
-11 -14 -13 -14 -21 0 -6 10 -23 16 -43 16 l-35 0 0 -175z"/>
<path d="M1384 506 c-16 -13 -19 -29 -22 -130 -4 -112 -3 -116 22 -141 29 -29
52 -32 84 -9 21 14 22 14 22 -6 0 -12 -5 -31 -11 -42 -10 -18 -17 -19 -59 -14
-40 5 -49 3 -54 -11 -11 -27 21 -43 85 -43 47 0 63 5 86 24 l28 24 3 181 3
181 -40 0 c-32 0 -41 -4 -41 -17 0 -15 -1 -15 -18 0 -23 21 -62 22 -88 3z
m100 -62 c3 -9 6 -46 6 -84 0 -49 -4 -71 -16 -81 -13 -10 -17 -10 -25 2 -10
16 -12 162 -2 172 11 12 31 7 37 -9z"/>
<path d="M1610 345 l0 -175 40 0 40 0 0 175 0 175 -40 0 -40 0 0 -175z"/>
<path d="M1730 345 l0 -175 40 0 39 0 3 142 c3 127 5 143 21 146 16 3 17 -9
17 -142 l0 -146 40 0 40 0 0 153 c0 122 -3 157 -16 175 -18 26 -60 29 -86 5
-17 -15 -18 -15 -18 0 0 13 -9 17 -40 17 l-40 0 0 -175z"/>
<path d="M1998 490 l-30 -30 4 -124 c3 -139 13 -160 74 -172 74 -14 124 25
124 97 0 26 -3 29 -34 29 -31 0 -34 -3 -40 -36 -5 -26 -12 -34 -24 -32 -13 2
-18 16 -20 56 l-3 52 53 1 c29 1 56 1 61 0 4 0 7 31 7 69 0 62 -3 74 -25 95
-37 38 -106 35 -147 -5z m96 -46 c3 -9 6 -29 6 -45 0 -24 -4 -29 -25 -29 -22
0 -25 4 -25 38 0 21 3 42 7 45 11 12 31 7 37 -9z"/>
<path d="M2238 490 l-30 -30 4 -124 c3 -139 13 -160 74 -172 74 -14 124 21
124 86 0 39 -1 40 -35 40 -31 0 -35 -3 -41 -36 -5 -25 -11 -34 -23 -32 -12 2
-17 17 -19 56 l-3 52 60 0 61 0 0 70 c0 62 -3 74 -25 95 -37 38 -106 35 -147
-5z m98 -54 c9 -38 1 -61 -24 -64 -20 -3 -22 1 -22 36 0 21 3 42 7 45 14 15
33 6 39 -17z"/>
<path d="M2450 345 l0 -175 40 0 40 0 0 136 0 135 30 10 c24 9 30 17 30 40 0
32 -11 37 -34 14 -8 -8 -17 -15 -20 -15 -3 0 -6 7 -6 15 0 11 -11 15 -40 15
l-40 0 0 -175z"/>
<path d="M2620 345 l0 -175 40 0 40 0 0 175 0 175 -40 0 -40 0 0 -175z"/>
<path d="M2740 345 l0 -175 40 0 39 0 3 142 c3 127 5 143 21 146 16 3 17 -9
17 -142 l0 -146 40 0 40 0 0 153 c0 122 -3 157 -16 175 -18 26 -65 30 -85 6
-11 -14 -13 -14 -21 0 -6 10 -23 16 -43 16 l-35 0 0 -175z"/>
<path d="M3014 512 c-25 -16 -34 -55 -34 -141 0 -104 10 -137 46 -153 21 -10
31 -9 55 4 28 17 29 17 29 -6 0 -42 -22 -60 -67 -53 -31 5 -44 3 -54 -9 -21
-26 14 -44 85 -44 106 1 116 21 116 246 l0 164 -40 0 c-31 0 -40 -4 -40 -17 0
-15 -1 -15 -18 0 -19 18 -59 22 -78 9z m94 -127 c4 -81 -3 -115 -22 -115 -20
0 -26 23 -26 104 0 76 4 89 30 84 11 -3 16 -20 18 -73z"/>
<path d="M3560 200 c0 -28 2 -30 40 -30 38 0 40 2 40 30 0 28 -2 30 -40 30
-38 0 -40 -2 -40 -30z"/>
<path d="M3920 200 c0 -28 2 -30 40 -30 38 0 40 2 40 30 0 28 -2 30 -40 30
-38 0 -40 -2 -40 -30z"/>
<path d="M4260 200 c0 -28 2 -30 40 -30 38 0 40 2 40 30 0 28 -2 30 -40 30
-38 0 -40 -2 -40 -30z"/>
</g>
</svg>
