<svg id="Layer_1" data-name="Layer 1" xmlns="http://www.w3.org/2000/svg" viewBox="0 0 917.34 1044.81"><defs><style>.cls-1,.cls-11{fill:#282e3a;}.cls-2{fill:#11510b;}.cls-3{fill:#af1515;}.cls-4{fill:#f2a204;}.cls-5{fill:#262c39;}.cls-6{fill:#bcbfc4;}.cls-7{fill:#fad8a4;}.cls-8{fill:#111724;}.cls-9{fill:#214f16;stroke:#000;stroke-miterlimit:10;stroke-width:0.5px;}.cls-10{fill:none;}.cls-11{font-size:266px;font-family:Anton-Regular, Anton;}.cls-12{font-size:96px;}</style></defs><title>Logo illustrator</title><path class="cls-1" d="M1025.77,384.11c1.82,0,3.65-.14,5.47-.21.38-.77.7-.57,1,.06" transform="translate(-463.46 -42.35)"/><path class="cls-1" d="M1083,384l22.57-33c1.4-2,1.37-3.4-.15-5.54-6.49-9.13-12.9-18.34-18.9-27.81-2.54-4-5.44-5.35-10.12-5.35q-152.64.19-305.27.08c-1.75,0-3.58.44-5.53-.55.81-1.12,1.58-2.11,2.29-3.15l84.06-124q34.54-50.94,69.19-101.83c2.31-3.38,2.42-5.65,0-9-6.56-9.12-12.72-18.54-19-27.85-3.27-4.83-3.26-4.84-6.66.19Q868.18,86.58,840.91,127c-18.4,27.13-37,54.11-55.42,81.23Q752.66,256.61,720,305.07q-14,20.63-28.15,41.1c-1.15,1.65-1.3,2.39-.07,4.14q10.05,14.25,19.63,28.82c2.39,3.65,5.06,5.12,9.62,5.11q152.39-.23,304.77-.13" transform="translate(-463.46 -42.35)"/><path class="cls-1" d="M1083,384" transform="translate(-463.46 -42.35)"/><path class="cls-2" d="M1022.71,398.32c-4.52,6.65-8.77,13.49-13.36,20.1-11.48,16.56-22.72,33.3-34,50Q947,510.18,918.81,552q-21.57,31.8-43.32,63.47c-1.34,1.95-1.66,3.27-.18,5.4,6.94,10,13.66,20.17,20.49,30.25,2.83,4.18,3.77,4.25,6.37.11,16.29-25.84,34.09-50.66,51.11-76,10.29-15.33,20.71-30.58,31.05-45.87q28.26-41.79,56.51-83.58Q1057,422,1073.15,398.32" transform="translate(-463.46 -42.35)"/><path class="cls-1" d="M1022.71,398.32" transform="translate(-463.46 -42.35)"/><path class="cls-1" d="M1027.89,391" transform="translate(-463.46 -42.35)"/><path class="cls-1" d="M1027.89,391" transform="translate(-463.46 -42.35)"/><path class="cls-3" d="M671.6,374.39c8.35,12.28,16.17,23.86,24.09,35.38,1.35,2,0,3-.9,4.34-8.07,12-16,24-24.24,35.86-1.39,2-1.9,4.56-4,6.1-.83.6-1,1.34-.25,2.49,16.66,23.84,33.2,47.77,50.35,71.26,9.9,13.56,19,27.68,28.82,41.33,8,11.13,15.13,22.86,23.95,33.4,2.39,2.85,4,6.39,6.08,9.92-2.05,1.12-4.21.6-6.23.61-67.44,0-134.88.1-202.32-.13-6.15,0-10.09,1.48-13.23,6.94-4.1,7.14-9.07,13.79-13.75,20.58-1.61,2.34-1.17,3.25,1.65,3.08,1,0,2,0,3,0q153.1,0,306.23-.08c3.33,0,5.48.9,7.3,3.64,7,10.52,14.16,20.95,21.7,32.06H463.46Z" transform="translate(-463.46 -42.35)"/><path class="cls-4" d="M1336.54,681.37H920.35c7.76-11.53,15.33-22.68,22.79-33.92a4.47,4.47,0,0,1,3.68-2,34,34,0,0,1,3.5,0h311.93c-6.12-9-12-17.35-17.45-26-2-3.22-4.2-4.32-7.89-4.32q-103.19.14-206.37,0c-1.68,0-4,1.09-5-.82s1-3.42,2-4.78c19.65-27.9,39.45-55.7,59.14-83.57,15.17-21.49,30.17-43.1,45.45-64.51,2.35-3.29,1.86-5.65-.18-8.56-7.68-11-15.23-22-22.88-33-5.7-8.2-5.86-8.31-.43-16.56,5.76-8.73,11.83-17.24,17.71-25.89,2-3,3.16-1.93,4.81.52q33.45,49.68,67.07,99.24,48.46,71.5,97,143c13.33,19.63,26.79,39.18,40.18,58.77A19.72,19.72,0,0,1,1336.54,681.37Z" transform="translate(-463.46 -42.35)"/><path class="cls-5" d="M904.75,297.09q0-81.39,0-162.78a19,19,0,0,1,3.49-11.49q9.64-13.81,19-27.85c1.82-2.75,2.65-2.74,4.57,0,17.33,25.27,34.86,50.41,52.26,75.63q37.26,54,74.45,108c4.27,6.19,8.62,12.32,13.6,19.43H906.3Z" transform="translate(-463.46 -42.35)"/><path class="cls-2" d="M726.64,399.1c3-.13,6-.36,8.94-.36q78.33-.06,156.66-.06l1,.28c.06,3.49.16,7,.16,10.46q0,76.66.06,153.32a16.7,16.7,0,0,1-2.76,9.24c-6.09,9.95-13.76,18.84-19.34,29.14-1.22,2.25-3.47,3.69-5.84.17-14-20.72-28-41.43-42.17-62-10-14.4-20.81-28.22-30.43-42.85-17-25.79-35.18-50.69-52.28-76.37-4.57-6.85-9.47-13.48-14.21-20.21A.9.9,0,0,0,726.64,399.1Z" transform="translate(-463.46 -42.35)"/><path class="cls-6" d="M904.75,297.09l1.55,1c-.46.6-1,.77-1.6.22A.73.73,0,0,1,904.75,297.09Z" transform="translate(-463.46 -42.35)"/><path class="cls-7" d="M726.64,399.1a.9.9,0,0,1-.16.79l-.72-.55Z" transform="translate(-463.46 -42.35)"/><path class="cls-7" d="M893.29,399l-1-.28C892.77,398.11,893.11,398.23,893.29,399Z" transform="translate(-463.46 -42.35)"/><path class="cls-8" d="M1032.23,384l-1-.06" transform="translate(-463.46 -42.35)"/><path class="cls-9" d="M1084.93,383.4" transform="translate(-463.46 -42.35)"/><path class="cls-9" d="M1032.83,383.9" transform="translate(-463.46 -42.35)"/><path class="cls-10" d="M1031.24,383.9" transform="translate(-463.46 -42.35)"/><path class="cls-10" d="M1032.23,384" transform="translate(-463.46 -42.35)"/><line class="cls-10" x1="568.77" y1="341.62" x2="619.5" y2="341.62"/><line class="cls-10" x1="618.39" y1="341.62" x2="619.5" y2="341.62"/><line class="cls-10" x1="580.72" y1="341.62" x2="618.39" y2="341.62"/><line class="cls-10" x1="569.55" y1="341.62" x2="580.72" y2="341.62"/><text class="cls-11" transform="translate(33.61 898.34)">MSTech <tspan class="cls-12"><tspan x="0" y="115.2">For Engineering S.A.R.L</tspan></tspan></text></svg>