<?xml version="1.0" encoding="UTF-8"?>
<svg version="1.1" xmlns="http://www.w3.org/2000/svg" width="58" height="66">
<path d="M0 0 C3.54610972 3.35592044 6.27057686 6.68973059 8.875 10.8125 C11.25038222 14.46693419 13.61266715 17.85414247 16.5625 21.0625 C21.87416404 26.8858381 26.26466402 33.5945782 29 41 C26.229576 41.19810513 23.45918054 41.38361066 20.6875 41.5625 C19.53797852 41.64661133 19.53797852 41.64661133 18.36523438 41.73242188 C14.09285417 41.99833766 10.03952116 41.96279603 5.78125 41.5 C-0.90238933 40.80575596 -7.48687857 41.12323905 -14.1875 41.4375 C-16.0447168 41.51581055 -16.0447168 41.51581055 -17.93945312 41.59570312 C-20.95997908 41.72398801 -23.98005141 41.85887493 -27 42 C-26.2310496 37.29024132 -24.33832386 34.18035478 -21.5625 30.375 C-20.75128458 29.23699164 -19.9400861 28.09897121 -19.12890625 26.9609375 C-18.42636719 25.98382812 -17.72382813 25.00671875 -17 24 C-16.34 23.01 -15.68 22.02 -15 21 C-14.34 20.67 -13.68 20.34 -13 20 C-12.74476562 19.31550781 -12.48953125 18.63101562 -12.2265625 17.92578125 C-10.53272561 13.88538688 -8.00187952 10.67111561 -5.375 7.1875 C-4.6015625 6.14819336 -4.6015625 6.14819336 -3.8125 5.08789062 C-2.54657074 3.38826337 -1.27394735 1.69362565 0 0 Z M-1 7 C-2.59158592 8.98206245 -2.59158592 8.98206245 -4.125 11.4375 C-4.66382813 12.26121094 -5.20265625 13.08492187 -5.7578125 13.93359375 C-7.08586839 15.74100566 -7.08586839 15.74100566 -7 17 C-4.36 17 -1.72 17 1 17 C1 13.7 1 10.4 1 7 C0.34 7 -0.32 7 -1 7 Z M-12 22 C-12.97786497 25.64428365 -13.33117342 27.35931027 -11.56640625 30.7734375 C-10.90511719 31.63195313 -10.24382813 32.49046875 -9.5625 33.375 C-8.90378906 34.24898437 -8.24507812 35.12296875 -7.56640625 36.0234375 C-6.79103516 37.00183594 -6.79103516 37.00183594 -6 38 C-4.35 37.67 -2.7 37.34 -1 37 C-2.07666203 35.2458877 -3.16163339 33.49687413 -4.25 31.75 C-4.85328125 30.77546875 -5.4565625 29.8009375 -6.078125 28.796875 C-7.86054442 26.20294755 -9.70101628 24.13622381 -12 22 Z M1 22 C1 25.3 1 28.6 1 32 C3.6486859 28.80331012 5.93992341 25.60513403 8 22 C5.69 22 3.38 22 1 22 Z M12 22 C10.68325862 23.93462002 9.37174202 25.87279697 8.0625 27.8125 C7.33160156 28.89144531 6.60070313 29.97039063 5.84765625 31.08203125 C3.90007384 33.89920018 3.90007384 33.89920018 3 37 C4.65 37 6.3 37 8 37 C11.53136242 31.23929927 11.53136242 31.23929927 14 25 C13.34 24.01 12.68 23.02 12 22 Z M-20 37 C-20 37.33 -20 37.66 -20 38 C-15.71 38 -11.42 38 -7 38 C-7 37.67 -7 37.34 -7 37 C-11.29 37 -15.58 37 -20 37 Z " fill="#D8B66E" transform="translate(27,0)"/>
<path d="M0 0 C3.56651652 3.41009036 6.5658482 6.88041646 9.375 10.9375 C10.08398438 11.93652344 10.79296875 12.93554688 11.5234375 13.96484375 C13.31864172 17.65498576 13.2129897 19.12149093 12 23 C10.546875 25.8515625 10.546875 25.8515625 8.75 28.625 C8.16734375 29.54539062 7.5846875 30.46578125 6.984375 31.4140625 C4.91066395 34.11641824 2.73658485 35.99002561 0 38 C-2.3734056 35.02973204 -4.6975992 32.02562014 -7 29 C-7.61746094 28.19949219 -8.23492188 27.39898438 -8.87109375 26.57421875 C-9.42925781 25.80722656 -9.98742187 25.04023438 -10.5625 24.25 C-11.07941406 23.55390625 -11.59632812 22.8578125 -12.12890625 22.140625 C-13 20 -13 20 -12.50390625 17.72265625 C-10.43091487 13.96973419 -7.95331798 10.60671611 -5.375 7.1875 C-4.6015625 6.14819336 -4.6015625 6.14819336 -3.8125 5.08789062 C-2.54657074 3.38826337 -1.27394735 1.69362565 0 0 Z M-1 7 C-2.59158592 8.98206245 -2.59158592 8.98206245 -4.125 11.4375 C-4.66382813 12.26121094 -5.20265625 13.08492187 -5.7578125 13.93359375 C-7.08586839 15.74100566 -7.08586839 15.74100566 -7 17 C-4.36 17 -1.72 17 1 17 C1 13.7 1 10.4 1 7 C0.34 7 -0.32 7 -1 7 Z M1 22 C1 25.3 1 28.6 1 32 C3.6486859 28.80331012 5.93992341 25.60513403 8 22 C5.69 22 3.38 22 1 22 Z " fill="#515660" transform="translate(27,0)"/>
<path d="M0 0 C9 0 18 0 27 0 C26.67 4.95 26.34 9.9 26 15 C24.68 15 23.36 15 22 15 C22 11.37 22 7.74 22 4 C21.01 4.66 20.02 5.32 19 6 C19.99 7.485 19.99 7.485 21 9 C20.45945946 13.54054054 20.45945946 13.54054054 19 15 C17.33388095 15.042721 15.66617115 15.04063832 14 15 C13.34 15 12.68 15 12 15 C8 15 4 15 0 15 C0 10.05 0 5.1 0 0 Z M12 7 C12 7.66 12 8.32 12 9 C12.99 8.67 13.98 8.34 15 8 C14.01 7.67 13.02 7.34 12 7 Z M16 10 C17 12 17 12 17 12 Z " fill="#4E515B" transform="translate(2,42)"/>
<path d="M0 0 C1.32 0 2.64 0 4 0 C4 0.66 4 1.32 4 2 C5.32 2.33 6.64 2.66 8 3 C8 6.96 8 10.92 8 15 C2 15 -4 15 -10 15 C-11.2684375 15.061875 -11.2684375 15.061875 -12.5625 15.125 C-15 15 -15 15 -17 13 C-17.265625 10.90625 -17.265625 10.90625 -17.25 8.5 C-17.25515625 7.7059375 -17.2603125 6.911875 -17.265625 6.09375 C-17 4 -17 4 -15 2 C-12.5625 1.875 -12.5625 1.875 -10 2 C-8.12488426 2 -6.24958447 1.98213296 -4.375 1.9375 C-2 2 -2 2 -1 3 C-0.67 2.01 -0.34 1.02 0 0 Z M-5 5 C-5 7.31 -5 9.62 -5 12 C-4.67 11.01 -4.34 10.02 -4 9 C-2.02 9.495 -2.02 9.495 0 10 C-0.33 9.01 -0.66 8.02 -1 7 C-1.99 7.33 -2.98 7.66 -4 8 C-4.33 7.01 -4.66 6.02 -5 5 Z M-13 9 C-9 10 -9 10 -9 10 Z " fill="#74767B" transform="translate(46,42)"/>
<path d="M0 0 C0.99 0.33 1.98 0.66 3 1 C2.87625 1.804375 2.7525 2.60875 2.625 3.4375 C3.15996123 8.51963169 5.5525173 12.26086475 9 16 C11.59623219 17.28367032 11.59623219 17.28367032 14 18 C14 18.66 14 19.32 14 20 C5.42 20.33 -3.16 20.66 -12 21 C-11.01157772 16.05788861 -9.43262938 13.30963746 -6.5625 9.375 C-5.75128458 8.23699164 -4.9400861 7.09897121 -4.12890625 5.9609375 C-3.42636719 4.98382812 -2.72382813 4.00671875 -2 3 C-1.34 2.01 -0.68 1.02 0 0 Z M-5 16 C-5 16.33 -5 16.66 -5 17 C-0.71 17 3.58 17 8 17 C8 16.67 8 16.34 8 16 C3.71 16 -0.58 16 -5 16 Z " fill="#A2191A" transform="translate(12,21)"/>
<path d="M0 0 C7.92 0 15.84 0 24 0 C22.52120793 3.69698017 21.2702923 6.3903883 19.125 9.625 C18.63257812 10.38039063 18.14015625 11.13578125 17.6328125 11.9140625 C15.95046064 14.06328712 14.24843934 15.47183993 12 17 C10.9323329 15.67080062 9.87119894 14.33635346 8.8125 13 C7.92498047 11.88625 7.92498047 11.88625 7.01953125 10.75 C4.48638356 7.3006074 2.26819401 3.62911042 0 0 Z M13 1 C13 4.3 13 7.6 13 11 C15.6486859 7.80331012 17.93992341 4.60513403 20 1 C17.69 1 15.38 1 13 1 Z " fill="#829584" transform="translate(15,21)"/>
<path d="M0 0 C4.29 0 8.58 0 13 0 C12.67 4.95 12.34 9.9 12 15 C10.68 15 9.36 15 8 15 C8 11.37 8 7.74 8 4 C7.01 4.66 6.02 5.32 5 6 C5.99 7.485 5.99 7.485 7 9 C6.45945946 13.54054054 6.45945946 13.54054054 5 15 C3.33382885 15.04063832 1.66611905 15.042721 0 15 C-0.66 13.02 -1.32 11.04 -2 9 C-1.34 8.67 -0.68 8.34 0 8 C-0.66 7.34 -1.32 6.68 -2 6 C-1.34 4.02 -0.68 2.04 0 0 Z M2 10 C3 12 3 12 3 12 Z " fill="#969A9E" transform="translate(16,42)"/>
<path d="M0 0 C0.9075 0.185625 1.815 0.37125 2.75 0.5625 C5.80130044 1.18106383 5.80130044 1.18106383 7.9375 0.5 C10 0 10 0 13.375 0.5 C16.97607354 0.9966998 19.45790891 0.60290912 23 0 C26.375 0.4375 26.375 0.4375 29 1 C29 2.98 29 4.96 29 7 C25.29168337 7.02918874 21.58339658 7.04686218 17.875 7.0625 C16.82828125 7.07087891 15.7815625 7.07925781 14.703125 7.08789062 C9.6909095 7.10375207 4.92334088 7.08177213 0 6 C0 4.02 0 2.04 0 0 Z " fill="#75777A" transform="translate(11,58)"/>
<path d="M0 0 C0.845625 0.04125 1.69125 0.0825 2.5625 0.125 C4.43761574 0.125 6.31291553 0.10713296 8.1875 0.0625 C10.5625 0.125 10.5625 0.125 11.5625 1.125 C11.60313832 2.79117115 11.605221 4.45888095 11.5625 6.125 C10.5725 6.125 9.5825 6.125 8.5625 6.125 C7.9025 7.445 7.2425 8.765 6.5625 10.125 C6.2325 8.145 5.9025 6.165 5.5625 4.125 C5.42972656 4.69089844 5.29695313 5.25679687 5.16015625 5.83984375 C4.89525391 6.94005859 4.89525391 6.94005859 4.625 8.0625 C4.45097656 8.79339844 4.27695312 9.52429688 4.09765625 10.27734375 C3.5625 12.125 3.5625 12.125 2.5625 13.125 C0.125 13.3125 0.125 13.3125 -2.4375 13.125 C-4.4375 11.125 -4.4375 11.125 -4.703125 9.03125 C-4.69539063 7.84015625 -4.69539063 7.84015625 -4.6875 6.625 C-4.69265625 5.8309375 -4.6978125 5.036875 -4.703125 4.21875 C-4.29301161 0.98609152 -3.20367946 0.16429125 0 0 Z M-0.4375 7.125 C3.5625 8.125 3.5625 8.125 3.5625 8.125 Z " fill="#56575F" transform="translate(33.4375,43.875)"/>
<path d="M0 0 C1 2 1 2 0 6 C4.62 5.67 9.24 5.34 14 5 C14.33 5.66 14.66 6.32 15 7 C16.64363134 7.72159424 18.31050386 8.39351421 20 9 C20 9.66 20 10.32 20 11 C11.42 11.33 2.84 11.66 -6 12 C-4.875 6.375 -4.875 6.375 -2.4375 3.1875 C-1.98246094 2.58292969 -1.52742187 1.97835938 -1.05859375 1.35546875 C-0.53458984 0.68451172 -0.53458984 0.68451172 0 0 Z M1 7 C1 7.33 1 7.66 1 8 C5.29 8 9.58 8 14 8 C14 7.67 14 7.34 14 7 C9.71 7 5.42 7 1 7 Z " fill="#C88F8E" transform="translate(6,30)"/>
<path d="M0 0 C6.7270516 5.13380254 7.99431058 9.97724231 10 18 C6.04 18 2.08 18 -2 18 C-1.44661458 15.265625 -0.89322917 12.53125 -0.33984375 9.796875 C-0.00981194 7.08075117 -0.2995342 5.58124405 -1 3 C-0.67 2.01 -0.34 1.02 0 0 Z " fill="#E8A317" transform="translate(40,18)"/>
<path d="M0 0 C2.97 0 5.94 0 9 0 C9.33 3.3 9.66 6.6 10 10 C10.99 9.34 11.98 8.68 13 8 C12.6875 10.375 12.6875 10.375 12 13 C11.01 13.66 10.02 14.32 9 15 C7.87370125 13.56351736 6.7490101 12.12577415 5.625 10.6875 C4.99851562 9.88699219 4.37203125 9.08648437 3.7265625 8.26171875 C0 3.3800905 0 3.3800905 0 0 Z " fill="#284D27" transform="translate(18,23)"/>
<path d="M0 0 C1.98 0 3.96 0 6 0 C6.33 2.97 6.66 5.94 7 9 C6.34 8.01 5.68 7.02 5 6 C5.020625 7.11375 5.04125 8.2275 5.0625 9.375 C5 13 5 13 4 15 C2.68 15 1.36 15 0 15 C0 10.05 0 5.1 0 0 Z " fill="#6B6C73" transform="translate(2,42)"/>
<path d="M0 0 C1.98 0.495 1.98 0.495 4 1 C4 1.99 4 2.98 4 4 C5.0209375 4.928125 5.0209375 4.928125 6.0625 5.875 C6.701875 6.57625 7.34125 7.2775 8 8 C7.7 12.3 7.7 12.3 6 14 C4.33382885 14.04063832 2.66611905 14.042721 1 14 C0.34 12.02 -0.32 10.04 -1 8 C-0.34 7.67 0.32 7.34 1 7 C0.34 6.34 -0.32 5.68 -1 5 C-0.625 2.375 -0.625 2.375 0 0 Z M3 9 C4 11 4 11 4 11 Z " fill="#76797F" transform="translate(15,43)"/>
<path d="M0 0 C0.99 0 1.98 0 3 0 C3 1.32 3 2.64 3 4 C3.66 4 4.32 4 5 4 C5 2.68 5 1.36 5 0 C5.66 0 6.32 0 7 0 C6.979375 0.721875 6.95875 1.44375 6.9375 2.1875 C6.91643458 5.00835294 6.91643458 5.00835294 7.5625 7.75 C7.706875 8.4925 7.85125 9.235 8 10 C7 11 7 11 4.5625 11.1875 C2 11 2 11 0 9 C-0.1953125 6.8359375 -0.1953125 6.8359375 -0.125 4.375 C-0.10695313 3.55773438 -0.08890625 2.74046875 -0.0703125 1.8984375 C-0.04710938 1.27195313 -0.02390625 0.64546875 0 0 Z " fill="#474A53" transform="translate(29,46)"/>
<path d="M0 0 C0.99 0.33 1.98 0.66 3 1 C3.99 0.67 4.98 0.34 6 0 C6 1.65 6 3.3 6 5 C6.66 5 7.32 5 8 5 C7.67 4.01 7.34 3.02 7 2 C7.33 1.34 7.66 0.68 8 0 C12 0 12 0 14 1 C14.33 2.65 14.66 4.3 15 6 C9.72 6 4.44 6 -1 6 C-1 1 -1 1 0 0 Z " fill="#78797D" transform="translate(42,58)"/>
<path d="M0 0 C1.299375 0.01353516 1.299375 0.01353516 2.625 0.02734375 C3.40875 0.03894531 4.1925 0.05054687 5 0.0625 C7.1875992 0.0625 9.37523738 0.03837303 11.5625 0 C15 0.0625 15 0.0625 17 1.0625 C17 1.7225 17 2.3825 17 3.0625 C8.75 3.0625 0.5 3.0625 -8 3.0625 C-8 2.4025 -8 1.7425 -8 1.0625 C-5.0294763 0.07232543 -3.09363586 -0.04143262 0 0 Z " fill="#282F37" transform="translate(23,17.9375)"/>
<path d="M0 0 C0.99 0.99 1.98 1.98 3 3 C1.54235334 6.40117553 -0.36070715 8.43833341 -3 11 C-4.35156675 12.65191491 -5.68962066 14.31522656 -7 16 C-7 15.34 -7 14.68 -7 14 C-7.66 14 -8.32 14 -9 14 C-7.45158425 10.65291949 -5.50894136 7.75332488 -3.375 4.75 C-2.74335938 3.85796875 -2.11171875 2.9659375 -1.4609375 2.046875 C-0.73777344 1.03367188 -0.73777344 1.03367188 0 0 Z " fill="#62656A" transform="translate(27,0)"/>
<path d="M0 0 C0.99 0 1.98 0 3 0 C3 0.99 3 1.98 3 3 C9.6 3 16.2 3 23 3 C23 3.66 23 4.32 23 5 C22.07767578 4.98259766 22.07767578 4.98259766 21.13671875 4.96484375 C19.92435547 4.95130859 19.92435547 4.95130859 18.6875 4.9375 C17.88699219 4.92589844 17.08648437 4.91429687 16.26171875 4.90234375 C13.83138666 4.90342145 13.83138666 4.90342145 11 6 C11 5.34 11 4.68 11 4 C7.7 4 4.4 4 1 4 C0.67 4.66 0.34 5.32 0 6 C-0.99 6 -1.98 6 -3 6 C-1.125 1.125 -1.125 1.125 0 0 Z " fill="#42464D" transform="translate(17,14)"/>
<path d="M0 0 C0 0.33 0 0.66 0 1 C-7.59 1 -15.18 1 -23 1 C-19.09183991 -0.95408004 -16.89082027 -1.41191634 -12.625 -1.75 C-11.52414062 -1.84796875 -10.42328125 -1.9459375 -9.2890625 -2.046875 C-5.79672688 -1.997103 -3.23435194 -1.27028928 0 0 Z " fill="#87342D" transform="translate(26,39)"/>
<path d="M0 0 C2.69082872 0.17635452 5.32851446 0.61835921 8 1 C7.67 2.65 7.34 4.3 7 6 C4.69 6 2.38 6 0 6 C-0.38218767 4.34385343 -0.71395102 2.67542976 -1 1 C-0.67 0.67 -0.34 0.34 0 0 Z " fill="#848686" transform="translate(2,58)"/>
<path d="M0 0 C0.33 0 0.66 0 1 0 C1 2.31 1 4.62 1 7 C1.66 7 2.32 7 3 7 C3 6.01 3 5.02 3 4 C3.99 4 4.98 4 6 4 C6.042721 5.66611905 6.04063832 7.33382885 6 9 C5 10 5 10 2.5 10.125 C0 10 0 10 -1 9 C-1.1328125 7.1875 -1.1328125 7.1875 -1.125 5 C-1.12757812 4.278125 -1.13015625 3.55625 -1.1328125 2.8125 C-1 1 -1 1 0 0 Z " fill="#41444A" transform="translate(39,47)"/>
<path d="M0 0 C1.98 0 3.96 0 6 0 C6 0.99 6 1.98 6 3 C5.34 3 4.68 3 4 3 C4 6.63 4 10.26 4 14 C3.34 14 2.68 14 2 14 C2 10.37 2 6.74 2 3 C1.34 3 0.68 3 0 3 C0 2.01 0 1.02 0 0 Z " fill="#34363E" transform="translate(23,42)"/>
<path d="M0 0 C0.33 0.66 0.66 1.32 1 2 C0.67 2.66 0.34 3.32 0 4 C4.62 4 9.24 4 14 4 C14 4.33 14 4.66 14 5 C13.41508789 5.01981934 12.83017578 5.03963867 12.22753906 5.06005859 C9.56791975 5.15553481 6.90906162 5.26512142 4.25 5.375 C3.32960938 5.4059375 2.40921875 5.436875 1.4609375 5.46875 C0.57148437 5.50742187 -0.31796875 5.54609375 -1.234375 5.5859375 C-2.05131836 5.6173584 -2.86826172 5.6487793 -3.70996094 5.68115234 C-6.16832958 6.02343693 -7.85759999 6.7739277 -10 8 C-10.33 6.68 -10.66 5.36 -11 4 C-7.30458414 3.04975021 -4.69541586 3.04975021 -1 4 C-0.67 2.68 -0.34 1.36 0 0 Z " fill="#F3F3CA" transform="translate(36,33)"/>
<path d="M0 0 C-0.99 0.495 -0.99 0.495 -2 1 C-1.67 1.99 -1.34 2.98 -1 4 C-3.31 4.66 -5.62 5.32 -8 6 C-8.66 4.02 -9.32 2.04 -10 0 C-6.30581799 -1.231394 -3.7943739 -0.64432764 0 0 Z " fill="#7C7E81" transform="translate(27,59)"/>
<path d="M0 0 C0.66 0 1.32 0 2 0 C2 0.66 2 1.32 2 2 C2.66 2 3.32 2 4 2 C4 2.66 4 3.32 4 4 C3.34 4 2.68 4 2 4 C2 7.3 2 10.6 2 14 C1.01 14 0.02 14 -1 14 C-0.67 9.38 -0.34 4.76 0 0 Z " fill="#33363C" transform="translate(47,43)"/>
<path d="M0 0 C1.32 0 2.64 0 4 0 C4 4.29 4 8.58 4 13 C3.34 13 2.68 13 2 13 C1.855625 11.783125 1.71125 10.56625 1.5625 9.3125 C1.17219047 6.17329623 0.67648144 3.0924866 0 0 Z " fill="#2D2E36" transform="translate(10,43)"/>
<path d="M0 0 C3.73884332 2.65654657 5.64978174 4.58110387 7 9 C4.525 8.01 4.525 8.01 2 7 C2 8.32 2 9.64 2 11 C1.34 11 0.68 11 0 11 C-1.125 3.375 -1.125 3.375 0 0 Z " fill="#DFCD9D" transform="translate(40,18)"/>
<path d="M0 0 C1.2684375 0.12375 1.2684375 0.12375 2.5625 0.25 C4.9919516 3.8941774 4.72429575 5.96241272 4.5625 10.25 C2.4105563 7.02208445 2.36163557 5.96599191 2.5625 2.25 C1.9025 2.25 1.2425 2.25 0.5625 2.25 C0.5625 3.57 0.5625 4.89 0.5625 6.25 C-0.0975 6.25 -0.7575 6.25 -1.4375 6.25 C-1.4375 4.93 -1.4375 3.61 -1.4375 2.25 C-2.0975 1.92 -2.7575 1.59 -3.4375 1.25 C-2.4375 0.25 -2.4375 0.25 0 0 Z " fill="#7E8489" transform="translate(33.4375,43.75)"/>
<path d="M0 0 C0.99 0.33 1.98 0.66 3 1 C3 4 3 7 3 10 C2.566875 9.54625 2.13375 9.0925 1.6875 8.625 C-0.10798342 6.79975666 -0.10798342 6.79975666 -3 5 C-2.01 3.35 -1.02 1.7 0 0 Z " fill="#AB6768" transform="translate(12,21)"/>
<path d="M0 0 C0.66 0.99 1.32 1.98 2 3 C2.99 2.34 3.98 1.68 5 1 C4.6875 3.375 4.6875 3.375 4 6 C3.01 6.66 2.02 7.32 1 8 C-0.32 6.35 -1.64 4.7 -3 3 C-2.01 2.67 -1.02 2.34 0 2 C0 1.34 0 0.68 0 0 Z " fill="#40603C" transform="translate(26,30)"/>
<path d="M0 0 C5.04969516 0.44556134 7.47618687 2.55813601 11 6 C11 6.99 11 7.98 11 9 C9.35 9 7.7 9 6 9 C6.99 8.67 7.98 8.34 9 8 C9 7.34 9 6.68 9 6 C6.03312999 4.35173889 3.34373475 3.55728913 0 3 C0 2.01 0 1.02 0 0 Z " fill="#A23F3F" transform="translate(8,27)"/>
<path d="M0 0 C1.98 0.495 1.98 0.495 4 1 C4.33 3.31 4.66 5.62 5 8 C4.34 8 3.68 8 3 8 C3 7.34 3 6.68 3 6 C1.68 5.67 0.36 5.34 -1 5 C-0.67 3.35 -0.34 1.7 0 0 Z " fill="#4A4F58" transform="translate(15,43)"/>
<path d="M0 0 C0.625 1.8125 0.625 1.8125 1 4 C0.01 5.485 0.01 5.485 -1 7 C2.63 7 6.26 7 10 7 C10 7.33 10 7.66 10 8 C5.71 8 1.42 8 -3 8 C-1.125 1.125 -1.125 1.125 0 0 Z " fill="#E6CA87" transform="translate(39,29)"/>
<path d="M0 0 C1.98 0 3.96 0 6 0 C5.67 0.66 5.34 1.32 5 2 C4.855625 2.66 4.71125 3.32 4.5625 4 C4 6 4 6 2 8 C0.4375 5.6875 0.4375 5.6875 -1 3 C-0.67 2.01 -0.34 1.02 0 0 Z " fill="#2D5B28" transform="translate(20,24)"/>
<path d="M0 0 C2.31 0 4.62 0 7 0 C7.33 1.32 7.66 2.64 8 4 C6.35 4.66 4.7 5.32 3 6 C2.814375 5.071875 2.814375 5.071875 2.625 4.125 C2.12802644 1.80879168 2.12802644 1.80879168 0 0 Z " fill="#787A84" transform="translate(16,42)"/>
<path d="M0 0 C0.99 0 1.98 0 3 0 C2.50168276 3.68754757 1.89932357 5.60490662 -1 8 C-1 7.34 -1 6.68 -1 6 C-1.66 6 -2.32 6 -3 6 C-2 4 -1 2 0 0 Z " fill="#5B5B63" transform="translate(21,8)"/>
<path d="M0 0 C0.99 0 1.98 0 3 0 C3 0.66 3 1.32 3 2 C3.99 2 4.98 2 6 2 C6 2.99 6 3.98 6 5 C4.35 5 2.7 5 1 5 C0.67 3.35 0.34 1.7 0 0 Z " fill="#45464C" transform="translate(15,52)"/>
<path d="M0 0 C1.65 0.33 3.3 0.66 5 1 C4.67 2.65 4.34 4.3 4 6 C2.35 6 0.7 6 -1 6 C-0.34 5.34 0.32 4.68 1 4 C0.6814823 1.89179203 0.6814823 1.89179203 0 0 Z " fill="#61656B" transform="translate(32,51)"/>
<path d="M0 0 C2.475 0.99 2.475 0.99 5 2 C4.67 2.66 4.34 3.32 4 4 C3.01 3.67 2.02 3.34 1 3 C1 3.99 1 4.98 1 6 C0.01 6 -0.98 6 -2 6 C-2 5.34 -2 4.68 -2 4 C-1.34 4 -0.68 4 0 4 C0 2.68 0 1.36 0 0 Z " fill="#D7A433" transform="translate(42,25)"/>
<path d="M0 0 C0.66 0.33 1.32 0.66 2 1 C2 2.98 2 4.96 2 7 C1.01 7 0.02 7 -1 7 C-1.04254356 5.00045254 -1.04080783 2.99958364 -1 1 C-0.67 0.67 -0.34 0.34 0 0 Z " fill="#10500D" transform="translate(24,25)"/>
<path d="M0 0 C0.66 0 1.32 0 2 0 C2 0.99 2 1.98 2 3 C1.34 3 0.68 3 0 3 C0 4.65 0 6.3 0 8 C-0.99 7.34 -1.98 6.68 -3 6 C-1.125 1.125 -1.125 1.125 0 0 Z " fill="#517850" transform="translate(32,26)"/>
</svg>
