<?xml version="1.0" standalone="no"?>
<!DOCTYPE svg PUBLIC "-//W3C//DTD SVG 20010904//EN"
 "http://www.w3.org/TR/2001/REC-SVG-20010904/DTD/svg10.dtd">
<svg version="1.0" xmlns="http://www.w3.org/2000/svg"
 width="58.000000pt" height="66.000000pt" viewBox="0 0 58.000000 66.000000"
 preserveAspectRatio="xMidYMid meet">

<g transform="translate(0.000000,66.000000) scale(0.100000,-0.100000)"
fill="#000000" stroke="none">
<path d="M210 561 c-33 -50 -60 -94 -60 -99 0 -16 48 -20 152 -14 84 4 98 7
96 21 -3 13 -21 16 -106 19 l-102 3 50 74 c27 41 46 77 40 80 -5 3 -36 -35
-70 -84z"/>
<path d="M287 613 c-4 -3 -7 -30 -7 -60 l0 -53 51 0 50 0 -42 60 c-46 66 -43
63 -52 53z"/>
<path d="M70 357 c-30 -45 -56 -85 -58 -89 -2 -5 53 -8 123 -8 81 0 124 4 120
10 -3 6 -51 10 -108 10 -111 0 -126 17 -19 22 l64 3 -31 43 c-23 31 -30 49
-25 67 11 45 -10 26 -66 -58z"/>
<path d="M212 370 c23 -32 45 -57 50 -54 4 3 8 30 8 60 l0 54 -49 0 -50 0 41
-60z"/>
<path d="M314 373 c-56 -83 -55 -81 -45 -88 6 -3 33 28 61 70 31 46 45 75 37
75 -8 0 -32 -26 -53 -57z"/>
<path d="M168 229 c-25 -14 -22 -32 8 -69 15 -17 23 -34 19 -38 -4 -4 -10 -1
-12 6 -5 14 -33 17 -33 3 0 -5 7 -17 16 -25 12 -12 20 -13 35 -6 25 14 24 41
-1 73 -11 14 -20 27 -20 30 0 3 9 3 20 0 22 -6 26 7 8 25 -14 14 -18 14 -40 1z"/>
<path d="M248 232 c-19 -4 -25 -22 -8 -22 6 0 10 -25 10 -55 0 -30 5 -55 10
-55 6 0 10 25 10 55 0 30 5 55 10 55 14 0 12 17 -2 22 -7 2 -21 3 -30 0z"/>
<path d="M30 165 c0 -72 17 -89 22 -22 l4 42 8 -42 c10 -49 36 -60 36 -15 0
15 5 34 10 42 7 11 10 4 10 -27 0 -24 5 -43 10 -43 6 0 10 28 10 65 0 57 -2
65 -19 65 -20 0 -30 -17 -32 -53 -1 -14 -5 -8 -11 16 -7 26 -15 37 -29 37 -17
0 -19 -8 -19 -65z"/>
<path d="M460 165 c0 -51 3 -65 15 -65 11 0 15 12 15 45 0 25 5 45 10 45 6 0
10 -20 10 -45 0 -25 5 -45 10 -45 6 0 10 25 10 55 0 48 -2 55 -20 55 -11 0
-20 5 -20 10 0 6 -7 10 -15 10 -12 0 -15 -14 -15 -65z"/>
<path d="M307 203 c-4 -3 -7 -28 -7 -54 0 -37 4 -48 19 -52 22 -5 35 2 44 26
4 11 1 17 -8 17 -8 0 -15 -7 -15 -16 0 -8 -4 -12 -10 -9 -17 11 -11 35 9 35
25 0 34 14 26 40 -6 19 -44 28 -58 13z m33 -25 c0 -16 -3 -19 -11 -11 -6 6 -8
16 -5 22 11 17 16 13 16 -11z"/>
<path d="M387 204 c-4 -4 -7 -27 -7 -50 0 -48 22 -70 53 -53 21 12 23 39 2 39
-8 0 -15 -7 -15 -16 0 -8 -4 -12 -10 -9 -5 3 -10 21 -10 40 0 19 5 37 10 40 6
3 10 -1 10 -9 0 -9 7 -16 16 -16 26 0 11 35 -16 38 -14 2 -29 0 -33 -4z"/>
<path d="M463 50 c1 -11 5 -20 9 -20 11 0 10 28 -1 35 -6 3 -9 -4 -8 -15z"/>
<path d="M500 43 c0 -30 9 -27 15 6 2 11 0 21 -6 21 -5 0 -9 -12 -9 -27z"/>
<path d="M82 40 c0 -14 2 -19 5 -12 2 6 2 18 0 25 -3 6 -5 1 -5 -13z"/>
<path d="M141 44 c0 -11 3 -14 6 -6 3 7 2 16 -1 19 -3 4 -6 -2 -5 -13z"/>
<path d="M171 44 c0 -11 3 -14 6 -6 3 7 2 16 -1 19 -3 4 -6 -2 -5 -13z"/>
<path d="M202 40 c0 -14 2 -19 5 -12 2 6 2 18 0 25 -3 6 -5 1 -5 -13z"/>
<path d="M232 40 c0 -14 2 -19 5 -12 2 6 2 18 0 25 -3 6 -5 1 -5 -13z"/>
<path d="M342 40 c0 -14 2 -19 5 -12 2 6 2 18 0 25 -3 6 -5 1 -5 -13z"/>
<path d="M371 44 c0 -11 3 -14 6 -6 3 7 2 16 -1 19 -3 4 -6 -2 -5 -13z"/>
</g>
</svg>
